<svg version="1.1" id="Layer_1" xmlns="http://www.w3.org/2000/svg" xmlns:xlink="http://www.w3.org/1999/xlink" x="0px" y="0px"
	 width="100%" viewBox="0 0 500 500" enable-background="new 0 0 500 500" xml:space="preserve">
<path fill="#000000" opacity="1.000000" stroke="none" 
	d="
M282.000000,501.000000 
	C188.000015,501.000000 94.500046,501.000000 1.000050,501.000000 
	C1.000033,334.333405 1.000033,167.666794 1.000017,1.000140 
	C167.666565,1.000093 334.333130,1.000093 500.999756,1.000046 
	C500.999847,167.666519 500.999847,334.333038 500.999939,500.999786 
	C428.166656,501.000000 355.333344,501.000000 282.000000,501.000000 
M438.072815,398.548340 
	C424.674072,392.936310 413.125916,384.414185 402.822327,374.464752 
	C390.850220,362.904114 379.771667,350.422485 368.114777,338.527283 
	C365.833923,336.199738 364.867279,333.993042 364.873932,330.751373 
	C364.970947,283.585541 364.941010,236.419479 364.941193,189.253464 
	C364.941254,171.587036 364.944641,153.920624 364.938934,136.254196 
	C364.935822,126.608421 369.252136,119.433479 378.069366,115.761444 
	C381.898285,114.166840 386.515228,114.519325 390.734680,113.765793 
	C391.691803,113.594864 392.484558,112.503441 393.352936,111.835701 
	C392.541809,111.277771 391.798462,110.498245 390.900665,110.223663 
	C389.986115,109.943962 388.919586,110.160706 387.919617,110.160698 
	C364.253265,110.160629 340.586945,110.160645 316.920593,110.160667 
	C308.087372,110.160675 299.254120,110.176407 290.420990,110.150177 
	C288.109467,110.143311 285.793243,110.001450 287.344818,113.661461 
	C287.984894,113.719704 288.639160,113.880119 289.273407,113.822151 
	C304.656921,112.416054 315.369659,123.008995 315.154968,139.955627 
	C314.580780,185.281067 314.959290,230.618561 314.959259,275.951263 
	C314.959259,277.527130 314.959290,279.102966 314.959290,280.678833 
	C314.586731,280.860352 314.214203,281.041901 313.841644,281.223419 
	C313.074066,280.186859 312.401581,279.061035 311.524841,278.126984 
	C292.934235,258.321228 274.349976,238.509369 255.705261,218.754608 
	C219.675171,180.579437 183.906799,142.150406 147.422333,104.414055 
	C130.905640,87.330620 111.808609,73.357780 88.781258,65.787315 
	C66.163658,58.351562 44.623669,61.038143 24.037142,72.592293 
	C24.158033,76.571678 26.164364,75.923561 28.769464,75.308159 
	C46.337082,71.158226 63.049728,73.316696 78.903984,82.193054 
	C100.919914,94.519150 118.436073,111.995361 134.755676,130.810623 
	C136.499695,132.821335 137.734329,136.026260 137.741241,138.681000 
	C137.905304,201.846359 137.869293,265.012238 137.865265,328.178040 
	C137.865173,329.677216 137.894470,331.183014 137.773010,332.674530 
	C136.944336,342.850281 131.414169,349.662170 121.464111,352.237488 
	C118.461685,353.014587 115.207687,352.773987 112.103233,353.232056 
	C111.237198,353.359833 110.493774,354.318542 109.694115,354.896088 
	C110.424164,355.542664 111.058266,356.449280 111.910828,356.763885 
	C112.791351,357.088806 113.884239,356.839233 114.884224,356.839233 
	C146.883789,356.839417 178.883347,356.839386 210.882904,356.839386 
	C212.520569,356.839386 214.158249,356.839386 215.798965,356.839386 
	C215.748108,353.248993 215.748108,353.248932 212.458221,353.160156 
	C195.874466,352.712677 188.060425,344.778473 188.058670,328.356415 
	C188.053894,283.523712 188.057037,238.690994 188.057053,193.858276 
	C188.057053,192.290024 188.057037,190.721786 188.057037,189.153534 
	C188.443802,188.972595 188.830566,188.791656 189.217331,188.610733 
	C189.990097,189.647644 190.667664,190.774384 191.549225,191.708633 
	C245.759827,249.159576 299.977966,306.603455 354.218323,364.026306 
	C371.016113,381.809631 389.225952,397.825226 411.922241,407.760101 
	C437.564545,418.984589 463.181580,419.035919 488.511719,406.761169 
	C488.465912,402.961578 486.202942,403.471466 483.741669,403.910431 
	C468.262787,406.670959 453.262848,404.992218 438.072815,398.548340 
z"/>
<path fill="#FDFDFD" opacity="1.000000" stroke="none" 
	d="
M438.421448,398.709412 
	C453.262848,404.992218 468.262787,406.670959 483.741669,403.910431 
	C486.202942,403.471466 488.465912,402.961578 488.511719,406.761169 
	C463.181580,419.035919 437.564545,418.984589 411.922241,407.760101 
	C389.225952,397.825226 371.016113,381.809631 354.218323,364.026306 
	C299.977966,306.603455 245.759827,249.159576 191.549225,191.708633 
	C190.667664,190.774384 189.990097,189.647644 189.217331,188.610733 
	C188.830566,188.791656 188.443802,188.972595 188.057037,189.153534 
	C188.057037,190.721786 188.057053,192.290024 188.057053,193.858276 
	C188.057037,238.690994 188.053894,283.523712 188.058670,328.356415 
	C188.060425,344.778473 195.874466,352.712677 212.458221,353.160156 
	C215.748108,353.248932 215.748108,353.248993 215.798965,356.839386 
	C214.158249,356.839386 212.520569,356.839386 210.882904,356.839386 
	C178.883347,356.839386 146.883789,356.839417 114.884224,356.839233 
	C113.884239,356.839233 112.791351,357.088806 111.910828,356.763885 
	C111.058266,356.449280 110.424164,355.542664 109.694107,354.896057 
	C110.493774,354.318542 111.237198,353.359833 112.103233,353.232056 
	C115.207687,352.773987 118.461685,353.014587 121.464111,352.237488 
	C131.414169,349.662170 136.944336,342.850281 137.773010,332.674530 
	C137.894470,331.183014 137.865173,329.677216 137.865265,328.178040 
	C137.869293,265.012238 137.905304,201.846359 137.741241,138.681000 
	C137.734329,136.026260 136.499695,132.821335 134.755676,130.810623 
	C118.436073,111.995361 100.919914,94.519150 78.903984,82.193054 
	C63.049728,73.316696 46.337082,71.158226 28.769464,75.308159 
	C26.164364,75.923561 24.158033,76.571678 24.037142,72.592293 
	C44.623669,61.038143 66.163658,58.351562 88.781258,65.787315 
	C111.808609,73.357780 130.905640,87.330620 147.422333,104.414055 
	C183.906799,142.150406 219.675171,180.579437 255.705261,218.754608 
	C274.349976,238.509369 292.934235,258.321228 311.524841,278.126984 
	C312.401581,279.061035 313.074066,280.186859 313.841644,281.223419 
	C314.214203,281.041901 314.586731,280.860352 314.959290,280.678833 
	C314.959290,279.102966 314.959259,277.527130 314.959259,275.951263 
	C314.959290,230.618561 314.580780,185.281067 315.154968,139.955627 
	C315.369659,123.008995 304.656921,112.416054 289.273407,113.822151 
	C288.639160,113.880119 287.984894,113.719704 287.344818,113.661461 
	C285.793243,110.001450 288.109467,110.143311 290.420990,110.150177 
	C299.254120,110.176407 308.087372,110.160675 316.920593,110.160667 
	C340.586945,110.160645 364.253265,110.160629 387.919617,110.160698 
	C388.919586,110.160706 389.986115,109.943962 390.900665,110.223663 
	C391.798462,110.498245 392.541809,111.277771 393.352936,111.835709 
	C392.484558,112.503441 391.691803,113.594864 390.734680,113.765793 
	C386.515228,114.519325 381.898285,114.166840 378.069366,115.761444 
	C369.252136,119.433479 364.935822,126.608421 364.938934,136.254196 
	C364.944641,153.920624 364.941254,171.587036 364.941193,189.253464 
	C364.941010,236.419479 364.970947,283.585541 364.873932,330.751373 
	C364.867279,333.993042 365.833923,336.199738 368.114777,338.527283 
	C379.771667,350.422485 390.850220,362.904114 402.822327,374.464752 
	C413.125916,384.414185 424.674072,392.936310 438.421448,398.709412 
z"/>
</svg>